<?xml version="1.0" encoding="UTF-8"?>
<svg id="Calque_2" data-name="Calque 2" xmlns="http://www.w3.org/2000/svg" viewBox="0 0 3000 3000">
  <defs>
    <style>
      .cls-1 {
        fill: #fff;
      }
    </style>
  </defs>
  <g id="AA_-_copie" data-name="AA  - copie">
    <g>
      <g id="OUT">
        <polygon points="2075.79 2064.12 1996.45 1742.55 2338.07 1742.55 2417.41 2064.12 2075.79 2064.12"/>
        <polygon points="2377.83 2033.12 2100.07 2033.12 2036.03 1773.55 2313.79 1773.55 2377.83 2033.12"/>
        <polygon points="1731.97 2064.12 1703.6 1877.45 1535.86 1877.45 1511.5 2037.77 1507.5 2064.12 1164.24 2064.12 1159.74 2034.74 1135.84 1877.45 968.1 1877.45 939.73 2064.12 582.59 2064.12 852.8 935.88 1251.04 935.88 1336.54 1286.7 1420.56 935.88 1818.8 935.88 2093.75 2064.12 1731.97 2064.12"/>
        <polygon points="1794.45 966.88 2054.29 2033.12 1758.61 2033.12 1730.24 1846.45 1509.22 1846.45 1483.03 2018.76 1480.85 2033.12 1190.85 2033.12 1190.38 2030.05 1162.48 1846.45 941.46 1846.45 913.09 2033.12 621.89 2033.12 877.25 966.88 1226.69 966.88 1336.8 1418.71 1445.01 966.88 1794.45 966.88"/>
        <polygon points="1994.21 1733.49 1797.42 935.88 2139.04 935.88 2335.83 1733.49 1994.21 1733.49"/>
        <polygon points="2018.49 1702.49 1837 966.88 2114.76 966.88 2296.25 1702.49 2018.49 1702.49"/>
        <path d="M1190.38,2030.05l-.73,3.07h1.2l-.47-3.07Z"/>
      </g>
      <g id="OUT-2">
        <polygon class="cls-1" points="2296.25 1702.49 2018.49 1702.49 1837 966.88 2114.76 966.88 2296.25 1702.49"/>
        <polygon class="cls-1" points="2377.83 2033.12 2100.07 2033.12 2036.03 1773.55 2313.79 1773.55 2377.83 2033.12"/>
        <path class="cls-1" d="M1794.45,966.88h-349.44l-108.21,451.83-110.11-451.83h-349.44l-255.36,1066.24h291.2l28.37-186.67h221.02l27.9,183.6.47,3.07h290l2.18-14.36,26.19-172.31h221.02l28.37,186.67h295.68l-259.84-1066.24ZM974.32,1637.39l76.16-452.48h2.98l76.16,452.48h-155.3ZM1542.08,1637.39l76.16-452.48h2.98l76.16,452.48h-155.3Z"/>
        <polygon class="cls-1" points="1129.62 1637.39 974.32 1637.39 1050.48 1184.91 1053.46 1184.91 1129.62 1637.39"/>
      </g>
      <polygon points="1053.23 1291.65 1083.69 1426.48 1200.56 1352.68 1126.76 1469.55 1261.58 1500 1126.76 1530.45 1200.56 1647.32 1083.69 1573.52 1053.23 1708.35 1022.78 1573.52 905.91 1647.32 979.71 1530.45 844.89 1500 979.71 1469.55 905.91 1352.68 1022.78 1426.48 1053.23 1291.65"/>
    </g>
  </g>
</svg>