<?xml version="1.0" encoding="UTF-8"?>
<svg id="Calque_5" data-name="Calque 5" xmlns="http://www.w3.org/2000/svg" viewBox="0 0 3000 3000">
  <defs>
    <style>
      .cls-1 {
        fill: #f1f3f1;
      }

      .cls-2 {
        fill: #2c2927;
      }
    </style>
  </defs>
  <polygon class="cls-2" points="806.96 1304.31 806.96 1527.37 757.1 1527.37 713.68 1495.83 656.37 1454.19 624.83 1431.28 624.83 1304.31 806.96 1304.31"/>
  <polygon class="cls-2" points="801.17 1559.39 806.24 1559.39 806.24 1563.07 801.17 1559.39"/>
  <path class="cls-2" d="M2505.74,1258.85h-820.52l-253.55-780.35-125.78,387.11-14.75,45.45-24.37,74.99-9.73,29.98-30.15,92.73-48.76,150.09h-318.41v255.08h-.72v109.21l162.42,118-95.25,293.18-22.33,68.67,36.59,16.95c17.37,8.03,35.9,12.1,55.09,12.1h136.52v-2.67c27.14,8.16,58.17,12.16,93.7,12.16,22.91,0,44.9-1.91,65.37-5.66l10.13-1.88,130.46-94.76,21.38,15.53,44.05,32,598.37,434.74-253.57-780.35,663.82-482.29ZM2009.04,2402.52l-510.52-370.9-45.45-33.03-21.4-15.55-22.27,16.19-126.54,91.92c-17.84,3.3-37,4.92-57.13,4.92-49.37,0-87.64-8.5-117.05-26-7.9-4.7-15.28-9.85-22.1-15.4v31.91h-91.07c-12.84,0-25.04-2.82-35.98-7.9l9.85-30.32,105.46-324.6-18.56-13.48-1.25-.89-119.06-86.5-31.53-22.91v-40.6h182.14v34.22c9.75-8.5,20.62-16.04,32.55-22.57,28.78-15.74,66.37-23.73,111.79-23.73,25.75,0,48.93,2.92,69.33,8.69v-28.07c-22.74,5.95-48.12,8.92-75.24,8.92-49.37,0-87.66-8.5-117.07-26-7.33-4.36-14.22-9.11-20.64-14.22v30.73h-182.14v-223.06h305.96l7.31-22.42,22.97-70.75,10.24-31.53.87-2.69,17.59-54.1,30.13-92.73,9.73-30,28.94-89.02,14.7-45.28,78.06-240.2,220.52,678.72h713.66l-577.35,419.47,220.54,678.74Z"/>
  <g>
    <path class="cls-2" d="M1498.52,2031.61v34.52c0,6.99-.47,13.88-1.4,20.62-10.07,74.33-73.95,131.8-151,131.8h-699.46c-84.04,0-152.4-68.38-152.4-152.42V1018.01c0-84.04,68.36-152.4,152.4-152.4h699.46c2.52,0,5.02.06,7.5.17l-14.7,45.28-28.94,89.02-9.73,30-30.13,92.73-17.59,54.1-.87,2.69-10.24,31.53-22.97,70.75-7.31,22.42h-305.96v223.06h182.14v-30.73c6.42,5.11,13.31,9.87,20.64,14.22,29.41,17.5,67.7,26,117.07,26,27.12,0,52.49-2.97,75.24-8.92v28.07c-20.4-5.78-43.57-8.69-69.33-8.69-45.41,0-83,7.99-111.79,23.73-11.93,6.53-22.8,14.07-32.55,22.57v-34.22h-182.14v40.6l31.53,22.91,119.06,86.5,1.25.89,18.56,13.48-105.46,324.6-9.85,30.32c10.95,5.07,23.14,7.9,35.98,7.9h91.07v-31.91c6.82,5.55,14.2,10.7,22.1,15.4,29.41,17.5,67.68,26,117.05,26,20.13,0,39.29-1.63,57.13-4.92l126.54-91.92,22.27-16.19,21.4,15.55,45.45,33.03Z"/>
    <path class="cls-1" d="M1788.5,1723.78l220.54,678.74-510.52-370.9-45.45-33.03-21.4-15.55-22.27,16.19-126.54,91.92c-17.84,3.3-37,4.92-57.13,4.92-49.37,0-87.64-8.5-117.05-26-7.9-4.7-15.28-9.85-22.1-15.4v31.91h-91.07c-12.84,0-25.04-2.82-35.98-7.9l9.85-30.32,105.46-324.6-18.56-13.48-1.25-.89-119.06-86.5-31.53-22.91v-40.6h182.14v34.22c9.75-8.5,20.62-16.04,32.55-22.57,28.78-15.74,66.37-23.73,111.79-23.73,25.75,0,48.93,2.92,69.33,8.69v-28.07c-22.74,5.95-48.12,8.92-75.24,8.92-49.37,0-87.66-8.5-117.07-26-7.33-4.36-14.22-9.11-20.64-14.22v30.73h-182.14v-223.06h305.96l7.31-22.42,22.97-70.75,10.24-31.53.87-2.69,17.59-54.1,30.13-92.73,9.73-30,28.94-89.02,14.7-45.28,78.06-240.2,220.52,678.72h713.66l-577.35,419.47Z"/>
    <path class="cls-1" d="M1453.07,1998.59v67.55c0,59.08-47.89,106.98-106.96,106.98h-699.46c-59.06,0-106.96-47.89-106.96-106.98V1018.01c0-59.06,47.89-106.96,106.96-106.96h692.26l-28.94,89.02-9.73,30-30.13,92.73-17.59,54.1-.87,2.69-10.24,31.53-22.97,70.75-7.31,22.42h-305.96v223.06h182.14v-30.73c6.42,5.11,13.31,9.87,20.64,14.22,29.41,17.5,67.7,26,117.07,26,27.12,0,52.49-2.97,75.24-8.92v28.07c-20.4-5.78-43.57-8.69-69.33-8.69-45.41,0-83,7.99-111.79,23.73-11.93,6.53-22.8,14.07-32.55,22.57v-34.22h-182.14v40.6l31.53,22.91,119.06,86.5,1.25.89,18.56,13.48-105.46,324.6-9.85,30.32c10.95,5.07,23.14,7.9,35.98,7.9h91.07v-31.91c6.82,5.55,14.2,10.7,22.1,15.4,29.41,17.5,67.68,26,117.05,26,20.13,0,39.29-1.63,57.13-4.92l126.54-91.92,22.27-16.19,21.4,15.55Z"/>
  </g>
  <g id="neue">
    <g>
      <g>
        <path class="cls-2" d="M1368.82,1153.14c-5.24-33.05-15.41-61.93-30.23-85.88-15.7-25.31-37.49-45.13-64.74-58.96-6.11-3.1-12.59-5.83-19.42-8.21-22.8-7.97-49.54-12.01-79.81-12.01-45.4,0-82.99,7.98-111.77,23.73-20.51,11.23-37.87,25.42-51.88,42.39-5.3-9.67-11.62-18.24-18.95-25.66-26.46-26.84-63.48-40.46-110.02-40.46-30.92,0-59.09,6.6-83.75,19.62-10.06,5.32-19.41,11.85-27.99,19.53-15.68-16.65-37.91-27.05-62.53-27.05h-91.06v527.2h182.13v-339.53c0-45.24,17.44-45.24,31.44-45.24,9.61,0,13.86,2.04,14.74,3.07.05.07,4.61,6.27,4.61,30.09v351.61h182.13v-30.75c6.43,5.11,13.31,9.87,20.64,14.23,29.41,17.5,67.71,26,117.07,26,27.11,0,52.49-2.98,75.24-8.93,32.4-8.46,59.47-22.93,78.59-43.3,31.64-33.7,49.02-82.02,51.65-143.6l1.18-27.61v-58.28c0-37.05-2.46-71.38-7.29-102ZM1197.22,1179.6h-56.01c.41-4.56,1.04-9.13,1.88-13.68,1.43-7.79,3.76-14.85,6.94-21,2.23-4.36,5.09-7.7,8.63-10.21,2.27-1.59,6.4-2.47,11.64-2.47,7.84,0,11.5,1.56,12.94,2.47,1.58,1,3.94,2.9,6.23,7.95,2.98,6.57,5.16,15.12,6.49,25.45.35,2.8.7,5.74,1,8.8.09.88.18,1.77.26,2.68ZM1150.66,1380.47c-3.38-7.38-5.87-16.2-7.42-26.24-1.76-11.23-2.64-23.1-2.64-35.25v-5.56h85.03c-14.61,7.12-25.49,20.89-28.46,37.79-3.64,20.8-8.54,31.63-12,37.04-1.58,2.46-4.51,7.03-17.45,7.03-5.24,0-7.02-1.43-7.81-2.06-3.67-2.96-6.68-7.11-9.25-12.75Z"/>
        <path class="cls-1" d="M1109.06,1281.88h235.52v-26.74c0-35.65-2.31-68.01-6.9-97.06-4.61-29.04-13.24-53.77-25.89-74.19-12.67-20.42-30.06-36.24-52.19-47.45-4.69-2.38-9.67-4.51-14.91-6.37-19.53-6.98-42.87-10.46-70.07-10.46-40.26,0-72.47,6.64-96.62,19.84-24.15,13.24-42.7,31.06-55.65,53.49-9.93,17.24-17.34,36.34-22.17,57.3-.2-45.88-10.41-79.07-30.62-99.57-20.41-20.71-49.6-31.06-87.56-31.06-25.89,0-48.88,5.34-69.01,15.97-20.14,10.64-36.53,27.46-49.18,50.47h-1.72c0-30.03-24.33-54.36-54.36-54.36h-59.52v464.15h119.06v-307.99c0-51.17,21-76.78,62.98-76.78,17.82,0,30.76,4.74,38.81,14.23,8.05,9.49,12.08,26.32,12.08,50.47v320.07h119.06v-110.18c3.59,14.58,8.54,28.3,14.82,41.15,11.5,23.59,29.33,42.57,53.49,56.95,24.15,14.36,57.8,21.56,100.94,21.56,27.55,0,53.15-3.52,75.24-10.35,23.55-7.28,43.1-18.33,56.75-32.88,26.45-28.17,40.83-69.29,43.14-123.37l-96,.96c-1.33,0-2.63.13-3.89.37-8.28,1.58-14.97,8.07-16.46,16.61-3.67,20.95-9.2,37.15-16.5,48.59-9.21,14.39-23.89,21.56-44,21.56-10.93,0-20.13-3.02-27.61-9.05-7.49-6.04-13.52-14.09-18.12-24.16-4.6-10.05-7.91-21.56-9.92-34.5-2.01-12.94-3.01-26.31-3.01-40.12v-37.09ZM1109.06,1193.02c0-10.92,1-21.84,3.01-32.78,2.01-10.92,5.32-20.84,9.92-29.76,4.6-8.89,10.79-16.1,18.55-21.56,7.77-5.45,17.69-8.2,29.76-8.2s22,2.44,29.76,7.33c5.79,3.65,10.62,8.57,14.48,14.77,1.33,2.12,2.55,4.39,3.64,6.81,4.31,9.49,7.33,21,9.07,34.51,1.72,13.52,2.86,29.2,3.44,47.01h-121.63v-18.12Z"/>
      </g>
      <g>
        <path class="cls-2" d="M1369.54,1712.35c-5.27-33.05-15.43-61.91-30.23-85.87-15.69-25.29-37.46-45.12-64.74-58.96-9.16-4.64-19.13-8.48-29.88-11.52-20.39-5.78-43.58-8.7-69.34-8.7-45.41,0-83,7.99-111.78,23.73-11.93,6.53-22.8,14.07-32.56,22.57v-34.22h-182.13v339.52c0,45.24-17.44,45.24-31.44,45.24-9.61,0-13.85-2.01-14.76-3.07-.04-.05-4.6-6.27-4.6-30.09v-351.59h-182.13v375.74c0,55.24,13.52,96.37,40.18,122.27,26.41,25.66,63.27,38.68,109.55,38.68,30.58,0,58.43-6.01,82.79-17.83,10.34-5.02,19.92-11.37,28.7-18.99,7.56,8.08,16.63,14.72,26.79,19.42,10.96,5.07,23.15,7.91,35.99,7.91h91.06v-31.92c6.83,5.56,14.2,10.71,22.1,15.4,29.41,17.5,67.7,26,117.06,26,20.12,0,39.29-1.64,57.13-4.93,40.46-7.42,74.12-23.24,96.71-47.3,12.01-12.8,21.96-27.7,29.83-44.62,12.88-27.67,20.18-60.77,21.81-98.98l1.18-27.61v-58.29c0-37.04-2.46-71.35-7.29-102ZM1151.37,1939.66c-3.36-7.32-5.86-16.12-7.42-26.24-1.75-11.12-2.63-22.97-2.63-35.22v-5.56h87.54c-15.95,7.48-28.01,22.28-31.47,40.55-3.63,19.13-8.26,29.21-11.5,34.28-1.58,2.46-4.51,7.03-17.45,7.03-5.26,0-7.07-1.47-7.81-2.06-3.65-2.96-6.67-7.11-9.26-12.78ZM1141.92,1738.83c.42-4.57,1.05-9.15,1.89-13.68,1.43-7.83,3.76-14.87,6.94-21,2.25-4.36,5.09-7.7,8.65-10.21,2.26-1.59,6.4-2.47,11.63-2.47,7.84,0,11.5,1.56,12.94,2.47,1.58,1,3.94,2.9,6.23,7.95,3,6.56,5.18,15.12,6.49,25.44.46,3.63.88,7.46,1.26,11.5h-56.03Z"/>
        <path class="cls-1" d="M1345.3,1841.11v-26.74c0-35.65-2.31-68.01-6.9-97.06-4.63-29.04-13.26-53.77-25.89-74.19-12.67-20.42-30.08-36.24-52.19-47.45-4.91-2.48-10.12-4.69-15.64-6.62-19.37-6.81-42.48-10.21-69.34-10.21-40.27,0-72.48,6.64-96.63,19.84-24.15,13.24-42.7,31.06-55.65,53.49-10.08,17.45-17.53,36.84-22.35,58.13-.45,1.89-.85,3.81-1.25,5.74v-125.13h-119.06v308c0,51.19-21,76.78-62.98,76.78-17.83,0-30.77-4.74-38.81-14.23-8.05-9.49-12.08-26.32-12.08-50.47v-320.07h-119.06v344.22c0,46.59,10.2,79.81,30.63,99.65,20.41,19.84,49.6,29.76,87.56,29.76,25.89,0,48.88-4.89,69.01-14.66,20.13-9.76,36.52-26.16,49.18-49.18h1.72c0,20.55,11.41,38.43,28.22,47.67,7.75,4.27,16.66,6.69,26.13,6.69h59.52v-116.23c3.71,16.84,9.13,32.59,16.27,47.21,11.5,23.59,29.33,42.57,53.49,56.95,24.15,14.36,57.8,21.56,100.94,21.56,56.93,0,104.37-14.09,130.85-42.27,26.42-28.18,40.81-69.3,43.12-123.37h-91.6c-2.75,0-5.39.45-7.86,1.3-8.25,2.79-14.62,9.89-16.32,18.86-3.68,19.41-8.99,34.56-15.93,45.41-9.21,14.39-23.89,21.56-44.01,21.56-10.93,0-20.14-3.02-27.61-9.05-7.49-6.05-13.52-14.09-18.11-24.16-4.63-10.05-7.92-21.56-9.92-34.5-2.04-12.94-3.02-26.31-3.02-40.12v-37.09h235.52ZM1109.78,1752.24c0-10.92.99-21.84,3.02-32.78,2-10.92,5.3-20.84,9.92-29.76,4.59-8.89,10.77-16.1,18.54-21.56,7.77-5.45,17.69-8.2,29.76-8.2s22.01,2.44,29.76,7.33c7.77,4.9,13.81,12.07,18.12,21.58,4.32,9.49,7.33,21,9.07,34.5,1.72,13.52,2.86,29.2,3.44,47.01h-121.63v-18.12Z"/>
      </g>
    </g>
  </g>
</svg>