<?xml version="1.0" encoding="UTF-8"?>
<svg id="RACING" xmlns="http://www.w3.org/2000/svg" viewBox="0 0 3000 3000">
  <defs>
    <style>
      .cls-1 {
        fill: #fff;
      }

      .cls-2 {
        fill: #0f1822;
        stroke: #0f1822;
      }

      .cls-2, .cls-3 {
        stroke-miterlimit: 10;
      }

      .cls-3 {
        fill: #e52421;
        stroke: #e52421;
      }
    </style>
  </defs>
  <g id="BACK">
    <g>
      <polygon class="cls-2" points="443.68 1732.6 433.11 1663.06 409.22 1663.06 398.65 1732.6 217.85 1732.6 329.26 1267.4 2773.05 1267.4 2773.05 1732.6 443.68 1732.6"/>
      <polygon class="cls-2" points="2739.05 1301.4 2739.05 1698.6 472.9 1698.6 462.33 1629.06 380 1629.06 369.43 1698.6 260.95 1698.6 356.08 1301.4 2739.05 1301.4"/>
    </g>
  </g>
  <g id="FRONT">
    <g>
      <path class="cls-3" d="M2739.05,1301.39v397.21H472.9l-10.57-69.54h-82.34l-10.57,69.54h-108.48l95.13-397.21h2382.98ZM418.38,1382.62l-28.37,168.57h57.86l-28.37-168.57h-1.11Z"/>
      <path class="cls-1" d="M762.01,1321.5l87,357h-99l-9.5-62.5h-74l-9.5,62.5h-97.5l85.5-357h117ZM703.01,1394.5l-25.5,151.5h52l-25.5-151.5h-1Z"/>
      <path class="cls-1" d="M954.01,1321.5v357h-93v-357h93Z"/>
      <path class="cls-1" d="M1124.01,1321.5l37.5,211.5h1l37.5-211.5h133v357h-87v-266h-1l-49.5,266h-67l-49.5-266h-1v266h-87v-357h133Z"/>
      <path class="cls-1" d="M1585.01,1321.5v76h-118.5v61h111v73h-111v71h123v76h-216v-357h211.5Z"/>
      <path class="cls-1" d="M1769.01,1321.5c17.66,0,32.75,2.34,45.25,7,12.5,4.67,22.66,11.25,30.5,19.75,7.83,8.5,13.5,18.59,17,30.25,3.5,11.67,5.25,24.34,5.25,38,0,24-4.84,43.34-14.5,58-9.67,14.67-25.17,23.67-46.5,27v1c22.33,2,37.66,9.84,46,23.5,8.33,13.67,12.5,32.5,12.5,56.5v45c0,5,.16,9.75.5,14.25.33,4.5.83,8.59,1.5,12.25.66,3.67,1.5,6.5,2.5,8.5,1.33,2,2.66,3.92,4,5.75,1.33,1.84,3.5,3.59,6.5,5.25v5h-99c-2.34-4.66-4.09-10.16-5.25-16.5-1.17-6.33-2-12.66-2.5-19-.5-6.33-.84-12.41-1-18.25-.17-5.83-.25-10.58-.25-14.25v-24c0-10-.5-18.33-1.5-25-1-6.66-2.75-11.91-5.25-15.75-2.5-3.83-5.67-6.5-9.5-8-3.84-1.5-8.59-2.25-14.25-2.25h-24.5v143h-93v-357h145.5ZM1735.01,1472.5c13.33,0,23.16-3.91,29.5-11.75,6.33-7.83,9.5-18.08,9.5-30.75,0-15-3.09-25.66-9.25-32-6.17-6.33-16.25-9.5-30.25-9.5h-18v84h18.5Z"/>
      <path class="cls-1" d="M2086,1321.5l87,357h-99l-9.5-62.5h-74l-9.5,62.5h-97.5l85.5-357h117ZM2027,1394.5l-25.5,151.5h52l-25.5-151.5h-1Z"/>
      <path class="cls-1" d="M2272.51,1579c0,17.34,2.5,28.92,7.5,34.75,5,5.84,11.83,8.75,20.5,8.75s15.5-2.91,20.5-8.75c5-5.83,7.5-17.41,7.5-34.75v-257.5h93v234c0,25-2.67,45.84-8,62.5-5.34,16.67-13.09,30-23.25,40-10.17,10-22.75,16.84-37.75,20.5s-32.34,5.5-52,5.5-36.59-1.84-51.75-5.5c-15.17-3.66-27.84-10.5-38-20.5-10.17-10-17.92-23.33-23.25-40-5.34-16.66-8-37.5-8-62.5v-234h93v257.5Z"/>
      <path class="cls-1" d="M2596.51,1321.5c27,0,48,4.92,63,14.75,15,9.84,26.25,23,33.75,39.5s12.08,35.5,13.75,57c1.66,21.5,2.5,43.92,2.5,67.25s-.84,45.75-2.5,67.25c-1.67,21.5-6.25,40.5-13.75,57s-18.75,29.67-33.75,39.5c-15,9.84-36,14.75-63,14.75h-135v-357h135ZM2573.01,1611.5c9,0,16.16-1.25,21.5-3.75,5.33-2.5,9.41-7.75,12.25-15.75,2.83-8,4.66-19.33,5.5-34,.83-14.66,1.25-34,1.25-58s-.42-43.33-1.25-58c-.84-14.66-2.67-26-5.5-34-2.84-8-6.92-13.25-12.25-15.75-5.34-2.5-12.5-3.75-21.5-3.75h-18.5v223h18.5Z"/>
    </g>
  </g>
</svg>