<?xml version="1.0" encoding="UTF-8"?>
<svg id="AA_" data-name="AA!" xmlns="http://www.w3.org/2000/svg" viewBox="0 0 3000 3000">
  <defs>
    <style>
      .cls-1 {
        fill: #f1f3f1;
      }

      .cls-2 {
        fill: #2c2927;
      }
    </style>
  </defs>
  <polygon class="cls-2" points="850.67 1310.16 850.67 1526.55 802.3 1526.55 760.18 1495.96 704.58 1455.57 673.98 1433.33 673.98 1310.16 850.67 1310.16"/>
  <polygon class="cls-2" points="845.05 1557.62 849.97 1557.62 849.97 1561.19 845.05 1557.62"/>
  <path class="cls-2" d="M1410.73,2006.43l-132,95.9-6.83,1.26c-19.05,3.51-39.56,5.29-60.96,5.29-41.09,0-75.53-5.68-104.41-17.3v8.1h-118.93c-16.64,0-32.71-3.53-47.76-10.5l-24.64-11.4,17.95-55.23,95.44-293.75-159.93-116.2v-85.56h.7v-247.46h305.2l50.34-154.94,29.24-89.97,9.44-29.08,147.15-452.87,236.16,726.86h764.26l-618.3,449.22,236.18,726.86-618.3-449.22Z"/>
  <path class="cls-2" d="M2452.69,1266.06h-795.99l-245.97-757.04-122.02,375.54-14.33,44.09-23.64,72.75-9.44,29.08-29.25,89.96-47.31,145.61h-308.89v247.46h-.7v105.95l157.57,114.47-92.41,284.42-21.66,66.61,35.51,16.44c16.85,7.79,34.83,11.74,53.42,11.74h132.44v-2.59c26.34,7.92,56.45,11.79,90.92,11.79,22.21,0,43.54-1.86,63.4-5.49l9.85-1.82,126.54-91.93,64.65,46.96,38.01,27.63,541.31,393.27-245.97-757.04,643.96-467.88ZM1970.83,2375.55l-449.27-326.42-44.09-32.02-66.74-48.5-21.6,15.71-122.76,89.17c-17.32,3.2-35.92,4.78-55.43,4.78-47.89,0-85.04-8.25-113.57-25.22-7.66-4.56-14.81-9.55-21.44-14.94v30.96h-88.35c-12.44,0-24.27-2.74-34.91-7.66l9.55-29.41,102.31-314.9-17.99-13.08-1.21-.86-115.5-83.92-30.61-22.23v-39.39h176.69v33.2c9.48-8.25,20.01-15.56,31.58-21.9,27.92-15.27,64.39-23.02,108.45-23.02,24.98,0,47.49,2.83,67.27,8.43v-27.23c-22.06,5.77-46.7,8.65-72.99,8.65-47.89,0-85.06-8.25-113.59-25.22-7.11-4.23-13.8-8.84-20.03-13.8v29.82h-176.69v-216.39h296.84l7.07-21.75,22.3-68.64,9.94-30.59.85-2.61,17.05-52.49,29.25-89.96,9.44-29.1,28.07-86.36,14.31-44.09,75.67-232.85,213.93,658.44h692.34l-560.12,406.94,213.95,658.46Z"/>
  <path class="cls-2" d="M1521.57,2049.13v.09c0,16.98-2.88,33.29-8.18,48.48-20.1,57.8-75.12,99.39-139.68,99.39h-678.56c-81.53,0-147.85-66.34-147.85-147.87v-1016.81c0-81.53,66.32-147.85,147.85-147.85h639.9l-14.31,44.09-28.07,86.36-9.44,29.1-29.25,89.96-17.05,52.49-.85,2.61-9.94,30.59-22.3,68.64-7.07,21.75h-296.84v216.39h176.69v-29.82c6.23,4.96,12.92,9.57,20.03,13.8,28.53,16.98,65.69,25.22,113.59,25.22,26.29,0,50.92-2.88,72.99-8.65v27.23c-19.78-5.6-42.29-8.43-67.27-8.43-44.05,0-80.52,7.75-108.45,23.02-11.57,6.34-22.1,13.65-31.58,21.9v-33.2h-176.69v39.39l30.61,22.23,115.5,83.92,1.21.86,17.99,13.08-102.31,314.9-9.55,29.41c10.64,4.92,22.47,7.66,34.91,7.66h88.35v-30.96c6.63,5.38,13.78,10.38,21.44,14.94,28.53,16.98,65.68,25.22,113.57,25.22,19.51,0,38.1-1.58,55.43-4.78l122.76-89.17,21.6-15.71,66.74,48.5,44.09,32.02Z"/>
  <path class="cls-2" d="M1756.88,1717.09l213.95,658.46-449.27-326.42-44.09-32.02-66.74-48.5-21.6,15.71-122.76,89.17c-17.32,3.2-35.92,4.78-55.43,4.78-47.89,0-85.04-8.25-113.57-25.22-7.66-4.56-14.81-9.55-21.44-14.94v30.96h-88.35c-12.44,0-24.27-2.74-34.91-7.66l9.55-29.41,102.31-314.9-17.99-13.08-1.21-.86-115.5-83.92-30.61-22.23v-39.39h176.69v33.2c9.48-8.25,20.01-15.56,31.58-21.9,27.92-15.27,64.39-23.02,108.45-23.02,24.98,0,47.49,2.83,67.27,8.43v-27.23c-22.06,5.77-46.7,8.65-72.99,8.65-47.89,0-85.06-8.25-113.59-25.22-7.11-4.23-13.8-8.84-20.03-13.8v29.82h-176.69v-216.39h296.84l7.07-21.75,22.3-68.64,9.94-30.59.85-2.61,17.05-52.49,29.25-89.96,9.44-29.1,28.07-86.36,14.31-44.09,75.67-232.85,213.93,658.44h692.34l-560.12,406.94Z"/>
  <path class="cls-2" d="M1477.48,2017.11v32.11c0,7.15-.72,14.13-2.09,20.85-9.66,47.32-51.51,82.93-101.67,82.93h-678.56c-57.3,0-103.76-46.46-103.76-103.78v-1016.81c0-57.3,46.46-103.76,103.76-103.76h625.59l-28.07,86.36-9.44,29.1-29.25,89.96-17.05,52.49-.85,2.61-9.94,30.59-22.3,68.64-7.07,21.75h-296.84v216.39h176.69v-29.82c6.23,4.96,12.92,9.57,20.03,13.8,28.53,16.98,65.69,25.22,113.59,25.22,26.29,0,50.92-2.88,72.99-8.65v27.23c-19.78-5.6-42.29-8.43-67.27-8.43-44.05,0-80.52,7.75-108.45,23.02-11.57,6.34-22.1,13.65-31.58,21.9v-33.2h-176.69v39.39l30.61,22.23,115.5,83.92,1.21.86,17.99,13.08-102.31,314.9-9.55,29.41c10.64,4.92,22.47,7.66,34.91,7.66h88.35v-30.96c6.63,5.38,13.78,10.38,21.44,14.94,28.53,16.98,65.68,25.22,113.57,25.22,19.51,0,38.1-1.58,55.43-4.78l122.76-89.17,21.6-15.71,66.74,48.5Z"/>
  <g id="neue">
    <g>
      <g>
        <path class="cls-2" d="M1395.74,1163.5c-5.09-32.06-14.95-60.08-29.33-83.32-15.23-24.55-36.37-43.79-62.81-57.2-5.93-3.01-12.21-5.66-18.84-7.97-22.12-7.74-48.06-11.65-77.43-11.65-44.04,0-80.51,7.74-108.43,23.02-19.9,10.9-36.74,24.67-50.33,41.12-5.14-9.38-11.27-17.69-18.38-24.9-25.67-26.04-61.58-39.25-106.73-39.25-29.99,0-57.32,6.4-81.25,19.03-9.76,5.16-18.83,11.5-27.15,18.94-15.21-16.15-36.78-26.25-60.66-26.25h-88.34v511.45h176.69v-329.38c0-43.89,16.92-43.89,30.5-43.89,9.32,0,13.45,1.98,14.3,2.98.05.06,4.47,6.08,4.47,29.19v341.1h176.69v-29.83c6.23,4.96,12.91,9.57,20.03,13.81,28.53,16.98,65.69,25.23,113.58,25.23,26.3,0,50.92-2.89,72.99-8.67,31.43-8.21,57.69-22.24,76.24-42,30.7-32.7,47.56-79.57,50.11-139.31l1.15-26.78v-56.53c0-35.95-2.38-69.24-7.07-98.96ZM1229.27,1189.18h-54.34c.4-4.42,1.01-8.86,1.82-13.27,1.39-7.56,3.65-14.41,6.73-20.37,2.17-4.23,4.93-7.47,8.37-9.9,2.21-1.54,6.21-2.4,11.29-2.4,7.61,0,11.15,1.52,12.56,2.4,1.53.97,3.82,2.82,6.04,7.71,2.89,6.37,5.01,14.67,6.3,24.69.34,2.71.68,5.57.97,8.54.09.85.18,1.72.25,2.6ZM1184.1,1384.04c-3.28-7.16-5.7-15.72-7.2-25.46-1.71-10.9-2.56-22.41-2.56-34.2v-5.39h82.49c-14.17,6.91-24.73,20.27-27.61,36.66-3.53,20.18-8.29,30.68-11.64,35.93-1.53,2.38-4.37,6.82-16.93,6.82-5.09,0-6.81-1.39-7.57-2-3.56-2.87-6.48-6.9-8.97-12.36Z"/>
        <path class="cls-1" d="M1143.74,1288.4h228.48v-25.94c0-34.58-2.24-65.98-6.69-94.16-4.47-28.17-12.85-52.16-25.11-71.97-12.29-19.81-29.17-35.16-50.63-46.03-4.55-2.31-9.38-4.37-14.47-6.18-18.94-6.77-41.59-10.15-67.98-10.15-39.06,0-70.3,6.44-93.73,19.25-23.43,12.85-41.43,30.13-53.98,51.89-9.64,16.72-16.83,35.26-21.5,55.59-.19-44.51-10.1-76.71-29.7-96.6-19.8-20.09-48.12-30.13-84.95-30.13-25.11,0-47.42,5.18-66.95,15.49-19.54,10.32-35.44,26.64-47.71,48.96h-1.67c0-29.13-23.61-52.73-52.73-52.73h-57.74v450.28h115.5v-298.79c0-49.64,20.37-74.48,61.1-74.48,17.29,0,29.84,4.6,37.66,13.8,7.81,9.2,11.71,25.53,11.71,48.96v310.51h115.5v-106.88c3.48,14.15,8.29,27.46,14.38,39.92,11.15,22.88,28.45,41.3,51.89,55.25,23.43,13.93,56.07,20.92,97.92,20.92,26.73,0,51.56-3.42,72.99-10.04,22.84-7.06,41.81-17.78,55.05-31.89,25.66-27.33,39.61-67.21,41.85-119.68l-93.13.93c-1.29,0-2.55.13-3.77.36-8.03,1.53-14.52,7.83-15.97,16.11-3.56,20.32-8.92,36.04-16.01,47.14-8.94,13.96-23.17,20.92-42.69,20.92-10.61,0-19.53-2.93-26.78-8.78-7.27-5.86-13.12-13.66-17.58-23.44-4.46-9.75-7.67-20.92-9.62-33.47-1.95-12.56-2.92-25.52-2.92-38.92v-35.98ZM1143.74,1202.19c0-10.59.97-21.18,2.92-31.8,1.95-10.59,5.16-20.22,9.62-28.87,4.46-8.63,10.47-15.62,18-20.92,7.53-5.29,17.16-7.95,28.87-7.95s21.34,2.37,28.87,7.11c5.62,3.54,10.3,8.31,14.05,14.33,1.29,2.05,2.47,4.26,3.53,6.6,4.18,9.2,7.11,20.37,8.8,33.47,1.67,13.12,2.78,28.32,3.34,45.61h-118v-17.58Z"/>
      </g>
      <g>
        <path class="cls-2" d="M1396.44,1706.01c-5.11-32.06-14.97-60.06-29.33-83.3-15.22-24.54-36.34-43.77-62.81-57.2-8.88-4.5-18.56-8.22-28.99-11.18-19.78-5.61-42.28-8.44-67.27-8.44-44.05,0-80.52,7.75-108.44,23.02-11.57,6.33-22.12,13.65-31.59,21.9v-33.19h-176.69v329.37c0,43.89-16.92,43.89-30.5,43.89-9.32,0-13.44-1.95-14.31-2.98-.04-.05-4.46-6.08-4.46-29.19v-341.09h-176.69v364.52c0,53.59,13.12,93.49,38.98,118.61,25.62,24.89,61.38,37.53,106.27,37.53,29.66,0,56.69-5.83,80.32-17.3,10.03-4.87,19.32-11.03,27.84-18.42,7.33,7.84,16.14,14.28,25.99,18.84,10.63,4.92,22.46,7.67,34.91,7.67h88.34v-30.96c6.63,5.39,13.78,10.39,21.44,14.94,28.53,16.98,65.67,25.23,113.56,25.23,19.52,0,38.11-1.59,55.42-4.78,39.25-7.2,71.91-22.55,93.82-45.89,11.65-12.42,21.3-26.87,28.94-43.29,12.49-26.84,19.58-58.96,21.16-96.02l1.15-26.78v-56.55c0-35.93-2.38-69.22-7.07-98.96ZM1184.78,1926.52c-3.26-7.1-5.69-15.64-7.2-25.46-1.7-10.78-2.55-22.28-2.55-34.16v-5.39h84.92c-15.48,7.25-27.18,21.62-30.53,39.34-3.52,18.56-8.02,28.34-11.15,33.26-1.53,2.38-4.37,6.82-16.93,6.82-5.1,0-6.86-1.43-7.57-2-3.54-2.87-6.48-6.9-8.99-12.4ZM1175.62,1731.69c.41-4.44,1.02-8.87,1.84-13.27,1.39-7.6,3.65-14.43,6.73-20.37,2.18-4.23,4.93-7.47,8.39-9.9,2.19-1.54,6.21-2.4,11.28-2.4,7.61,0,11.15,1.52,12.56,2.4,1.53.97,3.82,2.82,6.04,7.71,2.91,6.36,5.02,14.67,6.3,24.68.45,3.52.85,7.24,1.22,11.15h-54.35Z"/>
        <path class="cls-1" d="M1372.92,1830.92v-25.94c0-34.58-2.24-65.98-6.69-94.16-4.49-28.17-12.86-52.16-25.11-71.97-12.29-19.81-29.18-35.16-50.63-46.03-4.77-2.41-9.82-4.55-15.17-6.42-18.79-6.6-41.21-9.9-67.27-9.9-39.07,0-70.31,6.44-93.74,19.25-23.43,12.85-41.43,30.13-53.98,51.89-9.78,16.93-17,35.74-21.68,56.39-.43,1.83-.83,3.7-1.21,5.57v-121.39h-115.5v298.79c0,49.66-20.37,74.48-61.1,74.48-17.3,0-29.85-4.6-37.65-13.81-7.81-9.2-11.71-25.53-11.71-48.96v-310.51h-115.5v333.94c0,45.2,9.89,77.43,29.71,96.68,19.8,19.25,48.12,28.87,84.95,28.87,25.11,0,47.42-4.74,66.95-14.23,19.53-9.47,35.42-25.38,47.71-47.71h1.67c0,19.94,11.06,37.29,27.38,46.25,7.52,4.14,16.16,6.49,25.35,6.49h57.74v-112.76c3.59,16.34,8.86,31.61,15.78,45.8,11.15,22.88,28.45,41.3,51.89,55.25,23.43,13.93,56.07,20.92,97.92,20.92,55.23,0,101.25-13.66,126.94-41.01,25.63-27.34,39.59-67.23,41.84-119.68h-88.86c-2.66,0-5.23.43-7.62,1.26-8.01,2.7-14.19,9.6-15.83,18.29-3.57,18.83-8.72,33.52-15.45,44.05-8.94,13.96-23.17,20.92-42.69,20.92-10.61,0-19.54-2.93-26.78-8.78-7.27-5.86-13.12-13.67-17.57-23.44-4.49-9.75-7.69-20.92-9.62-33.47-1.98-12.56-2.93-25.52-2.93-38.92v-35.98h228.48ZM1144.44,1744.71c0-10.59.96-21.19,2.93-31.8,1.94-10.59,5.14-20.22,9.62-28.87,4.45-8.63,10.45-15.62,17.99-20.92,7.53-5.29,17.16-7.95,28.87-7.95s21.35,2.37,28.87,7.11c7.53,4.75,13.4,11.71,17.58,20.93,4.19,9.2,7.11,20.37,8.8,33.47,1.67,13.12,2.78,28.32,3.34,45.61h-118v-17.58Z"/>
      </g>
    </g>
  </g>
</svg>