<?xml version="1.0" encoding="UTF-8"?>
<svg id="AA_" data-name="AA!" xmlns="http://www.w3.org/2000/svg" viewBox="0 0 3000 3000">
  <defs>
    <style>
      .cls-1 {
        fill: #f9f9f0;
      }

      .cls-2 {
        fill: #e80029;
      }

      .cls-3 {
        fill: #0f1822;
      }
    </style>
  </defs>
  <g id="OUT">
    <polygon class="cls-3" points="2075.93 2064.12 1996.59 1742.55 2338.21 1742.55 2417.55 2064.12 2075.93 2064.12"/>
    <polygon class="cls-3" points="2377.97 2033.12 2100.21 2033.12 2036.17 1773.55 2313.93 1773.55 2377.97 2033.12"/>
    <polygon class="cls-3" points="1732.11 2064.12 1703.74 1877.45 1536 1877.45 1511.64 2037.77 1507.64 2064.12 1164.38 2064.12 1159.88 2034.74 1135.98 1877.45 968.24 1877.45 939.87 2064.12 582.73 2064.12 852.94 935.88 1251.18 935.88 1336.68 1286.7 1420.7 935.88 1818.94 935.88 2093.89 2064.12 1732.11 2064.12"/>
    <polygon class="cls-3" points="1794.59 966.88 2054.43 2033.12 1758.75 2033.12 1730.38 1846.45 1509.36 1846.45 1483.17 2018.76 1480.99 2033.12 1190.99 2033.12 1190.52 2030.05 1162.62 1846.45 941.6 1846.45 913.23 2033.12 622.03 2033.12 877.39 966.88 1226.83 966.88 1336.94 1418.71 1445.15 966.88 1794.59 966.88"/>
    <polygon class="cls-3" points="1994.35 1733.49 1797.56 935.88 2139.18 935.88 2335.97 1733.49 1994.35 1733.49"/>
    <polygon class="cls-3" points="2018.63 1702.49 1837.14 966.88 2114.9 966.88 2296.39 1702.49 2018.63 1702.49"/>
    <path class="cls-3" d="M1190.52,2030.05l-.73,3.07h1.2l-.47-3.07Z"/>
  </g>
  <g id="OUT-2" data-name="OUT">
    <polygon class="cls-2" points="2296.39 1702.49 2018.63 1702.49 1837.14 966.88 2114.9 966.88 2296.39 1702.49"/>
    <polygon class="cls-2" points="2377.97 2033.12 2100.21 2033.12 2036.17 1773.55 2313.93 1773.55 2377.97 2033.12"/>
    <path class="cls-2" d="M1794.59,966.88h-349.44l-108.21,451.83-110.11-451.83h-349.44l-255.36,1066.24h291.2l28.37-186.67h221.02l27.9,183.6.47,3.07h290s2.18-14.36,2.18-14.36l26.19-172.31h221.02l28.37,186.67h295.68l-259.84-1066.24ZM974.46,1637.39l76.16-452.48h2.98s76.16,452.48,76.16,452.48h-155.3ZM1542.22,1637.39l76.16-452.48h2.98s76.16,452.48,76.16,452.48h-155.3Z"/>
    <polygon class="cls-2" points="1129.76 1637.39 974.46 1637.39 1050.62 1184.91 1053.6 1184.91 1129.76 1637.39"/>
    <polygon class="cls-1" points="1053.37 1291.65 1083.83 1426.48 1200.7 1352.68 1126.9 1469.55 1261.72 1500 1126.9 1530.45 1200.7 1647.32 1083.83 1573.52 1053.37 1708.35 1022.92 1573.52 906.05 1647.32 979.85 1530.45 845.03 1500 979.85 1469.55 906.05 1352.68 1022.92 1426.48 1053.37 1291.65"/>
  </g>
</svg>